<svg width="18" height="20" viewBox="0 0 18 20" fill="none" xmlns="http://www.w3.org/2000/svg">
<path fill-rule="evenodd" clip-rule="evenodd" d="M17.2203 17.5225L12.7564 12.853C15.0453 9.59413 14.5332 4.95184 11.6001 2.37102C10.3583 1.28315 8.81105 0.688516 7.21494 0.685764C5.10384 0.678921 3.10407 1.71249 1.77884 3.4954C0.610788 5.05398 0.0654624 7.05447 0.264241 9.05162C0.454044 11.0508 1.37304 12.8845 2.81643 14.1442C4.05942 15.2323 5.60807 15.8265 7.20526 15.8281C8.73697 15.8255 10.2256 15.2778 11.4428 14.2689L15.9151 18.9372C16.0883 19.1335 16.3281 19.2442 16.5786 19.2433C16.8178 19.2437 17.0478 19.1434 17.2203 18.9635C17.3967 18.7793 17.4983 18.5264 17.5024 18.2607C17.5049 17.9833 17.403 17.7167 17.2203 17.5225ZM12.3363 8.27664C12.325 11.334 10.0451 13.8105 7.22705 13.8263C4.39951 13.8263 2.10775 11.3417 2.10574 8.27533C2.10975 5.2098 4.40147 2.72699 7.22706 2.727C10.0484 2.73424 12.3329 5.21573 12.3363 8.27665L12.3363 8.27664Z" fill="white"/>
</svg>
