<svg width="18" height="12" viewBox="0 0 18 12" fill="none" xmlns="http://www.w3.org/2000/svg">
<path fill-rule="evenodd" clip-rule="evenodd" d="M17.7733 5.29769C16.8916 3.81582 15.6009 2.57182 14.0301 1.68993L14.1044 1.62188L14.1666 1.56488L14.7646 1.01704C15.0185 0.784486 15.0185 0.407411 14.7646 0.174859C14.6427 0.0629082 14.4772 0 14.3045 0C14.1319 0 13.9663 0.0629168 13.8444 0.174859L12.9697 0.976205L12.9047 1.03575L12.8285 1.10551C11.5959 0.593558 10.2668 0.304699 8.91448 0.254823C5.20452 0.398912 1.84769 2.31186 0.0668033 5.29684C-0.0222678 5.44455 -0.0222678 5.62382 0.0668033 5.77152C0.946779 7.25065 2.23407 8.49301 3.80069 9.37503L3.72733 9.44309L3.66512 9.50008L2.70123 10.3822C2.44736 10.6148 2.44736 10.9919 2.70123 11.2244C2.8239 11.3345 2.98915 11.3957 3.16089 11.3946C3.33423 11.3968 3.50138 11.3356 3.62519 11.2244L4.86394 10.0888L4.92894 10.0301L5.00508 9.9603C6.23915 10.4729 7.56985 10.7617 8.92376 10.811C13.5667 10.811 16.7416 7.51288 17.7733 5.76897C17.861 5.62215 17.861 5.44451 17.7733 5.29769ZM1.34637 5.57841L1.31944 5.53502L1.34637 5.49249C2.92611 3.00708 5.77792 1.42898 8.91443 1.30456H8.92186C9.95995 1.35082 10.9821 1.55703 11.9454 1.9145L11.8711 1.98341L11.8024 2.04636L10.8543 2.91491L10.7865 2.97701L10.7187 3.03911C10.2839 2.79639 9.79122 2.65421 9.28309 2.62483C9.16546 2.61972 9.0466 2.61972 8.92651 2.62483C8.85593 2.62483 8.79557 2.62483 8.74079 2.62483C7.05381 2.62646 5.66135 3.83379 5.56684 5.3768C5.53001 6.03547 5.74076 6.68581 6.16393 7.21938L6.09707 7.28148L6.03207 7.34103L4.78125 8.47925L4.71624 8.53795L4.64474 8.6043C3.28006 7.8714 2.14393 6.82943 1.34544 5.57841H1.34637ZM11.0724 5.4202C11.1076 5.9137 10.9257 6.39958 10.5672 6.76939C10.2108 7.141 9.70688 7.36647 9.16783 7.39549C9.08405 7.4006 8.99997 7.4006 8.91618 7.39549C8.88461 7.39549 8.84282 7.39549 8.80011 7.39549C8.51651 7.39446 8.23638 7.3382 7.9783 7.23046L8.0498 7.16496L8.11945 7.10116L10.6805 4.75496L10.7483 4.69201L10.817 4.63672C10.9651 4.87709 11.0523 5.14482 11.0724 5.4202ZM6.77149 5.65073C6.73664 5.15712 6.91889 4.67126 7.27758 4.30154C7.63351 3.92982 8.13722 3.70431 8.67605 3.67543C8.75985 3.67076 8.84389 3.67076 8.9277 3.67543C8.95927 3.67543 9.00198 3.67118 9.0447 3.67118C9.32382 3.67235 9.59959 3.72682 9.85444 3.83111L9.78201 3.89746L9.71236 3.96041L7.15593 6.30235L7.08815 6.36445L7.02314 6.42485C6.87813 6.18691 6.79221 5.92258 6.77149 5.65073ZM16.4947 5.57842C14.9126 8.0639 12.0597 9.64198 8.92196 9.7672V9.74338V9.76635C7.88001 9.71936 6.85412 9.51201 5.88731 9.153L5.96252 9.0841L6.03124 9.02115L6.98491 8.14749L7.05084 8.08709L7.11863 8.02499C7.55609 8.27139 8.05287 8.41569 8.56538 8.44523C8.68384 8.45118 8.80257 8.45118 8.92103 8.44523C8.99068 8.44523 9.05104 8.44949 9.10675 8.44949C10.7937 8.44785 12.1862 7.24053 12.2807 5.69752C12.3175 5.03477 12.1044 4.3806 11.6771 3.84472L11.7458 3.78602L11.8118 3.72563L13.0514 2.58996L13.1155 2.53126L13.1879 2.46491C14.5562 3.19808 15.6953 4.24163 16.4956 5.49505L16.5225 5.53759L16.4947 5.57842Z" fill="white"/>
</svg>
