<svg width="27" height="26" viewBox="0 0 27 26" fill="none" xmlns="http://www.w3.org/2000/svg">
<path d="M18.5625 9.75C18.5625 11.0429 18.0291 12.2829 17.0797 13.1971C16.1303 14.1114 14.8427 14.625 13.5 14.625C12.1573 14.625 10.8697 14.1114 9.92027 13.1971C8.97087 12.2829 8.4375 11.0429 8.4375 9.75C8.4375 8.45707 8.97087 7.21709 9.92027 6.30285C10.8697 5.38861 12.1573 4.875 13.5 4.875C14.8427 4.875 16.1303 5.38861 17.0797 6.30285C18.0291 7.21709 18.5625 8.45707 18.5625 9.75V9.75Z" fill="white"/>
<path fill-rule="evenodd" clip-rule="evenodd" d="M0 13C0 9.55219 1.42232 6.24558 3.95406 3.80761C6.4858 1.36964 9.91958 0 13.5 0C17.0804 0 20.5142 1.36964 23.0459 3.80761C25.5777 6.24558 27 9.55219 27 13C27 16.4478 25.5777 19.7544 23.0459 22.1924C20.5142 24.6304 17.0804 26 13.5 26C9.91958 26 6.4858 24.6304 3.95406 22.1924C1.42232 19.7544 0 16.4478 0 13V13ZM13.5 1.625C11.2755 1.62511 9.09624 2.23009 7.21305 3.3703C5.32987 4.5105 3.81929 6.13959 2.85519 8.07006C1.89109 10.0005 1.51265 12.1539 1.76343 14.2824C2.01422 16.4108 2.88403 18.4278 4.27275 20.1012C5.47088 18.2422 8.10844 16.25 13.5 16.25C18.8916 16.25 21.5274 18.2406 22.7273 20.1012C24.116 18.4278 24.9858 16.4108 25.2366 14.2824C25.4873 12.1539 25.1089 10.0005 24.1448 8.07006C23.1807 6.13959 21.6701 4.5105 19.7869 3.3703C17.9038 2.23009 15.7245 1.62511 13.5 1.625V1.625Z" fill="white"/>
</svg>
