<svg width="29" height="26" viewBox="0 0 29 26" fill="none" xmlns="http://www.w3.org/2000/svg">
<path fill-rule="evenodd" clip-rule="evenodd" d="M2.82861 23.1724V10.9197H4.71365V23.1724C4.71365 23.4224 4.81296 23.6621 4.98971 23.8389C5.16647 24.0156 5.4062 24.1149 5.65618 24.1149H22.6216C22.8715 24.1149 23.1113 24.0156 23.288 23.8389C23.4648 23.6621 23.5641 23.4224 23.5641 23.1724V10.9197H25.4491V23.1724C25.4491 23.9223 25.1512 24.6415 24.6209 25.1718C24.0907 25.7021 23.3715 26 22.6216 26H5.65618C4.90626 26 4.18706 25.7021 3.65679 25.1718C3.12652 24.6415 2.82861 23.9223 2.82861 23.1724V23.1724ZM23.5641 2.43697V9.03461L19.794 5.26453V2.43697C19.794 2.18699 19.8933 1.94726 20.07 1.7705C20.2468 1.59375 20.4865 1.49445 20.7365 1.49445H22.6216C22.8715 1.49445 23.1113 1.59375 23.288 1.7705C23.4648 1.94726 23.5641 2.18699 23.5641 2.43697Z" fill="white"/>
<path fill-rule="evenodd" clip-rule="evenodd" d="M12.8063 0.551915C13.1598 0.198524 13.6392 0 14.139 0C14.6388 0 15.1182 0.198524 15.4717 0.551915L28.0016 13.0799C28.1786 13.2569 28.278 13.4969 28.278 13.7472C28.278 13.9975 28.1786 14.2375 28.0016 14.4145C27.8246 14.5915 27.5846 14.6909 27.3343 14.6909C27.084 14.6909 26.844 14.5915 26.667 14.4145L14.139 1.88464L1.61102 14.4145C1.43404 14.5915 1.194 14.6909 0.943711 14.6909C0.693423 14.6909 0.453387 14.5915 0.276407 14.4145C0.0994265 14.2375 0 13.9975 0 13.7472C0 13.4969 0.0994265 13.2569 0.276407 13.0799L12.8063 0.551915Z" fill="white"/>
</svg>
