<svg width="31" height="26" viewBox="0 0 31 26" fill="none" xmlns="http://www.w3.org/2000/svg">
<g id="Group 9">
<g id="Group 21">
<path id="Vector" d="M27.4249 2.13542C27.6757 2.13542 27.9162 2.24791 28.0936 2.44814C28.2709 2.64838 28.3705 2.91995 28.3705 3.20313V22.4219C28.3705 22.705 28.2709 22.9766 28.0936 23.1769C27.9162 23.3771 27.6757 23.4896 27.4249 23.4896H2.83705C2.58624 23.4896 2.3457 23.3771 2.16835 23.1769C1.991 22.9766 1.89137 22.705 1.89137 22.4219V3.20313C1.89137 2.91995 1.991 2.64838 2.16835 2.44814C2.3457 2.24791 2.58624 2.13542 2.83705 2.13542H27.4249ZM2.83705 0C2.08462 0 1.363 0.337471 0.830954 0.938174C0.298903 1.53888 0 2.3536 0 3.20313L0 22.4219C0 23.2714 0.298903 24.0861 0.830954 24.6868C1.363 25.2875 2.08462 25.625 2.83705 25.625H27.4249C28.1773 25.625 28.8989 25.2875 29.431 24.6868C29.963 24.0861 30.2619 23.2714 30.2619 22.4219V3.20313C30.2619 2.3536 29.963 1.53888 29.431 0.938174C28.8989 0.337471 28.1773 0 27.4249 0H2.83705Z" fill="white"/>
<path id="Vector_2" d="M5.67407 7.47396C5.67407 7.19078 5.77371 6.91921 5.95106 6.71897C6.12841 6.51874 6.36895 6.40625 6.61976 6.40625H23.6421C23.8929 6.40625 24.1334 6.51874 24.3108 6.71897C24.4881 6.91921 24.5878 7.19078 24.5878 7.47396C24.5878 7.75713 24.4881 8.02871 24.3108 8.22894C24.1334 8.42918 23.8929 8.54167 23.6421 8.54167H6.61976C6.36895 8.54167 6.12841 8.42918 5.95106 8.22894C5.77371 8.02871 5.67407 7.75713 5.67407 7.47396ZM5.67407 12.8125C5.67407 12.5293 5.77371 12.2578 5.95106 12.0575C6.12841 11.8573 6.36895 11.7448 6.61976 11.7448H23.6421C23.8929 11.7448 24.1334 11.8573 24.3108 12.0575C24.4881 12.2578 24.5878 12.5293 24.5878 12.8125C24.5878 13.0957 24.4881 13.3673 24.3108 13.5675C24.1334 13.7677 23.8929 13.8802 23.6421 13.8802H6.61976C6.36895 13.8802 6.12841 13.7677 5.95106 13.5675C5.77371 13.3673 5.67407 13.0957 5.67407 12.8125ZM5.67407 18.151C5.67407 17.8679 5.77371 17.5963 5.95106 17.3961C6.12841 17.1958 6.36895 17.0833 6.61976 17.0833H17.968C18.2188 17.0833 18.4593 17.1958 18.6367 17.3961C18.814 17.5963 18.9137 17.8679 18.9137 18.151C18.9137 18.4342 18.814 18.7058 18.6367 18.906C18.4593 19.1063 18.2188 19.2188 17.968 19.2188H6.61976C6.36895 19.2188 6.12841 19.1063 5.95106 18.906C5.77371 18.7058 5.67407 18.4342 5.67407 18.151Z" fill="white"/>
</g>
</g>
</svg>
